<?xml version="1.0" standalone="no"?>
<!DOCTYPE svg PUBLIC "-//W3C//DTD SVG 20010904//EN"
 "http://www.w3.org/TR/2001/REC-SVG-20010904/DTD/svg10.dtd">
<svg version="1.0" xmlns="http://www.w3.org/2000/svg"
 width="268.000000pt" height="188.000000pt" viewBox="0 0 268.000000 188.000000"
 preserveAspectRatio="xMidYMid meet">
<metadata>
Created by potrace 1.16, written by Peter Selinger 2001-2019
</metadata>
<g transform="translate(0.000000,188.000000) scale(0.100000,-0.100000)"
fill="#000000" stroke="none">
<path d="M734 1667 c-341 -117 -632 -218 -647 -224 -33 -15 -35 -46 -5 -67 12
-9 85 -37 162 -62 78 -26 143 -48 145 -50 2 -2 -10 -19 -28 -39 -63 -72 -100
-186 -101 -307 0 -48 -3 -58 -21 -63 -47 -15 -75 -114 -48 -168 6 -12 22 -31
35 -43 l24 -20 -24 -97 c-28 -110 -93 -244 -167 -342 -27 -36 -49 -70 -49 -75
0 -13 81 -67 136 -90 l47 -20 44 25 c54 32 106 102 130 175 15 46 18 88 18
253 -1 108 2 197 5 197 14 0 40 62 40 97 0 39 -31 103 -51 103 -22 0 11 179
47 250 48 96 64 105 508 284 226 91 420 166 431 166 48 0 73 -71 38 -102 -10
-8 -170 -75 -355 -149 -186 -74 -338 -136 -338 -139 0 -3 151 -56 335 -118
l335 -114 588 202 c323 111 611 211 640 222 74 28 87 59 35 87 -28 14 -1269
441 -1280 440 -4 0 -287 -96 -629 -212z"/>
<path d="M1782 909 l-403 -139 -399 135 c-220 74 -402 135 -405 135 -3 0 -5
-41 -5 -91 0 -80 3 -96 27 -136 35 -61 37 -141 3 -201 -22 -39 -22 -42 -6 -66
38 -59 282 -152 487 -187 107 -18 151 -20 314 -16 259 7 420 42 654 145 84 37
108 52 132 85 l29 40 0 219 c0 168 -3 218 -12 217 -7 0 -194 -63 -416 -140z"/>
</g>
</svg>
