<?xml version="1.0" standalone="no"?>
<!DOCTYPE svg PUBLIC "-//W3C//DTD SVG 20010904//EN"
 "http://www.w3.org/TR/2001/REC-SVG-20010904/DTD/svg10.dtd">
<svg version="1.0" xmlns="http://www.w3.org/2000/svg"
 width="225.000000pt" height="225.000000pt" viewBox="0 0 225.000000 225.000000"
 preserveAspectRatio="xMidYMid meet">
<metadata>
Created by potrace 1.16, written by Peter Selinger 2001-2019
</metadata>
<g transform="translate(0.000000,225.000000) scale(0.100000,-0.100000)"
fill="#000000" stroke="none">
<path d="M925 2230 c-77 -11 -181 -38 -216 -55 -38 -20 -82 -69 -96 -107 -7
-19 -12 -94 -12 -180 l-1 -148 265 0 265 0 0 -35 0 -34 -417 -3 -418 -3 -50
-27 c-61 -31 -130 -104 -155 -161 -31 -69 -60 -236 -60 -341 0 -105 26 -260
59 -347 27 -70 87 -140 144 -168 37 -18 62 -21 169 -21 l126 0 4 162 c3 155 5
166 31 216 37 70 97 128 166 161 l56 26 340 5 c242 4 348 9 369 18 55 24 105
73 133 130 l28 57 3 283 c2 185 -1 301 -8 337 -22 107 -114 190 -242 220 -84
20 -385 29 -483 15z m-36 -176 c38 -32 49 -80 27 -122 -20 -38 -44 -52 -91
-52 -97 0 -133 138 -47 184 40 22 77 19 111 -10z"/>
<path d="M1724 1522 c-1 -128 -4 -155 -24 -207 -28 -71 -101 -149 -175 -185
-49 -25 -54 -25 -390 -30 -330 -5 -341 -6 -387 -28 -54 -27 -103 -78 -129
-136 -17 -37 -19 -71 -19 -355 0 -299 1 -317 21 -358 57 -118 228 -191 471
-200 118 -5 151 -2 231 16 191 44 303 125 327 234 6 29 10 97 8 152 l-3 100
-262 3 -263 2 0 35 0 35 433 0 c429 0 432 0 472 23 53 30 97 91 132 184 49
129 58 178 57 318 -1 199 -49 380 -121 465 -58 67 -95 80 -248 80 l-130 0 -1
-148z m-229 -1162 c43 -45 42 -101 -3 -141 -44 -40 -93 -40 -133 0 -23 24 -29
38 -29 74 0 38 5 49 31 71 44 37 96 36 134 -4z"/>
</g>
</svg>
