<?xml version="1.0" standalone="no"?>
<!DOCTYPE svg PUBLIC "-//W3C//DTD SVG 20010904//EN"
 "http://www.w3.org/TR/2001/REC-SVG-20010904/DTD/svg10.dtd">
<svg version="1.0" xmlns="http://www.w3.org/2000/svg"
 width="194.000000pt" height="218.000000pt" viewBox="0 0 194.000000 218.000000"
 preserveAspectRatio="xMidYMid meet">
<metadata>
Created by potrace 1.16, written by Peter Selinger 2001-2019
</metadata>
<g transform="translate(0.000000,218.000000) scale(0.100000,-0.100000)"
fill="#000000" stroke="none">
<path d="M891 2125 c-18 -8 -37 -13 -41 -10 -4 3 -14 -3 -21 -13 -13 -16 -13
-16 6 -2 11 8 -7 -14 -40 -50 -66 -73 -113 -152 -155 -268 -32 -87 -22 -83
-153 -64 -158 24 -295 6 -381 -48 -25 -16 -46 -27 -46 -25 0 3 21 19 47 35 26
17 42 30 36 30 -13 0 -88 -54 -99 -71 -5 -8 -3 -10 6 -4 8 5 11 3 8 -6 -3 -8
-10 -14 -15 -14 -6 0 -15 -4 -20 -9 -5 -6 -2 -6 6 -1 11 6 13 4 7 -11 -31 -74
-25 -151 19 -251 30 -66 97 -165 154 -226 l45 -48 -44 -42 -43 -42 33 42 c24
30 30 46 23 55 -47 60 -107 135 -116 143 -18 17 30 -49 72 -100 23 -27 41 -52
41 -56 0 -3 -17 -25 -38 -49 -20 -24 -31 -41 -24 -36 18 11 15 -9 -5 -25 -15
-12 -16 -12 -8 1 8 13 7 13 -8 1 -18 -15 -23 -26 -7 -16 16 10 12 -2 -20 -49
-89 -131 -115 -252 -74 -350 6 -15 4 -17 -7 -11 -8 5 -11 5 -6 -1 5 -5 14 -9
19 -9 6 0 13 -6 16 -14 3 -9 0 -11 -9 -5 -11 6 -10 3 1 -11 17 -22 99 -75 114
-75 6 0 -12 14 -41 30 -28 16 -54 34 -58 40 -3 5 16 -4 43 -21 27 -16 73 -36
103 -44 68 -19 232 -19 324 -1 39 8 72 11 75 8 3 -4 14 -32 24 -62 33 -99 98
-212 161 -279 41 -44 50 -58 28 -43 -17 12 -48 45 -68 72 -20 28 -39 50 -41
50 -3 0 10 -21 28 -46 37 -52 97 -106 110 -98 4 3 16 0 25 -6 17 -11 17 -11 0
-6 -10 3 -16 2 -13 -3 3 -4 52 -8 108 -7 82 1 103 4 103 15 0 8 6 16 14 19 9
3 11 0 5 -9 -6 -12 -5 -12 9 0 10 8 15 16 12 19 -2 3 19 30 48 62 57 61 111
157 148 260 12 36 23 66 24 68 1 1 44 -5 96 -14 137 -24 276 -15 358 22 36 16
75 42 93 63 16 20 25 26 19 14 -6 -12 -28 -36 -48 -53 -21 -18 -28 -27 -17
-21 29 14 86 80 79 91 -3 5 -1 29 5 54 6 29 6 63 0 98 -14 78 -90 223 -159
306 l-61 72 61 80 c57 73 81 99 63 68 -4 -8 -3 -9 2 -5 5 5 9 14 9 20 0 7 18
48 40 92 38 77 40 84 41 184 1 101 1 104 -29 137 -16 19 -39 40 -51 45 -11 6
-4 -3 17 -21 20 -17 42 -41 48 -53 6 -12 -1 -7 -16 11 -34 42 -104 77 -184 93
-72 14 -224 7 -312 -14 l-56 -14 -17 54 c-45 142 -141 290 -230 355 -21 15
-33 28 -26 28 7 0 45 -33 84 -72 53 -54 84 -96 116 -160 25 -48 46 -85 48 -83
2 2 -15 41 -39 87 -31 60 -63 103 -118 158 l-76 76 -75 2 c-48 1 -87 -4 -109
-13z m125 -101 c65 -31 148 -156 195 -291 24 -71 24 -70 -8 -78 -16 -3 -74
-24 -130 -46 l-102 -40 -113 44 c-62 25 -121 47 -130 50 -13 5 -15 12 -9 34
31 102 95 228 144 282 29 31 78 61 100 61 11 0 34 -7 53 -16z m671 -409 c62
-8 110 -34 124 -67 26 -63 -18 -188 -109 -308 -77 -102 -70 -101 -154 -33 -40
32 -89 70 -109 85 -34 25 -35 28 -53 144 -9 66 -20 129 -22 140 -5 20 0 22 78
33 148 20 143 20 245 6z m-1170 -6 c35 -6 63 -16 63 -23 0 -6 -6 -45 -14 -86
-8 -41 -17 -100 -20 -130 -6 -50 -11 -58 -49 -85 -23 -16 -72 -56 -109 -87
l-67 -58 -44 53 c-137 163 -189 304 -136 371 11 14 41 32 67 40 57 18 221 20
309 5z m760 -171 c-2 -16 0 -28 5 -28 4 0 8 -5 8 -11 0 -8 -4 -8 -14 0 -7 6
-52 33 -100 60 l-86 48 82 30 83 31 13 -52 c7 -28 11 -63 9 -78z m-282 2 c16
-6 23 -14 19 -22 -4 -7 -3 -8 4 -4 14 8 65 -17 188 -91 l91 -56 7 -66 c8 -85
8 -192 0 -268 l-7 -60 -91 -56 c-122 -73 -154 -89 -168 -81 -7 4 -8 3 -4 -4 4
-7 -6 -18 -27 -28 l-35 -17 -96 51 c-54 28 -128 70 -165 94 l-68 43 -7 98 c-4
53 -4 141 0 195 l7 97 67 43 c53 33 248 141 257 142 1 0 14 -4 28 -10z m-467
-424 l-3 -55 -60 50 c-33 27 -60 54 -60 59 0 5 27 32 60 59 l60 50 3 -55 c2
-30 2 -78 0 -108z m-31 -161 c38 -27 43 -35 48 -85 4 -30 15 -94 24 -142 l17
-87 -56 -13 c-30 -7 -105 -12 -166 -12 -172 0 -244 38 -244 128 1 75 67 203
161 310 l40 46 67 -58 c37 -31 86 -71 109 -87z m1200 61 c68 -91 123 -209 123
-267 0 -94 -69 -134 -230 -133 -47 1 -118 7 -158 14 -58 11 -71 16 -67 29 7
24 35 213 35 241 0 17 9 31 28 42 15 9 65 48 112 87 95 79 86 80 157 -13z
m-853 -276 c17 -1 -42 -30 -102 -51 -30 -10 -56 -18 -57 -17 -2 2 -9 42 -17
89 l-14 86 90 -54 c49 -29 95 -53 100 -53z m435 29 c-6 -41 -14 -79 -18 -85
-4 -8 -31 -2 -89 19 l-82 30 87 49 c49 27 92 53 97 58 16 16 17 5 5 -71z
m-174 -148 c61 -23 116 -44 123 -46 29 -10 -74 -226 -146 -306 -79 -88 -146
-88 -223 0 -42 47 -120 197 -137 262 l-10 37 97 36 c53 20 107 44 121 52 31
18 39 16 175 -35z"/>
<path d="M853 1248 c-23 -15 -43 -30 -43 -33 0 -2 21 9 47 25 26 17 54 30 62
30 9 0 -2 -9 -24 -19 -100 -45 -143 -150 -108 -259 4 -15 3 -15 -7 -2 -10 13
-11 13 -7 0 2 -8 10 -15 17 -15 7 0 15 -6 18 -14 3 -9 0 -11 -9 -6 -8 4 2 -8
20 -28 35 -37 48 -47 35 -26 -4 7 -1 10 7 7 8 -3 13 -11 11 -17 -1 -7 2 -10 7
-6 6 3 39 -2 75 -11 48 -12 69 -13 83 -5 14 8 11 9 -17 4 -19 -3 -32 -3 -29 1
3 3 26 8 49 11 34 3 52 12 79 41 20 20 30 33 22 29 -9 -5 -12 -3 -9 6 3 8 11
13 17 11 7 -1 10 2 6 7 -3 6 -2 22 1 38 6 21 9 24 13 10 4 -9 6 10 6 43 0 33
-2 52 -6 43 -4 -13 -7 -9 -12 14 -8 42 -62 102 -112 124 -22 10 -33 19 -25 19
28 0 97 -52 124 -93 14 -23 26 -36 26 -31 0 18 -48 76 -85 102 -29 21 -47 25
-112 26 -67 1 -81 -2 -120 -26z"/>
</g>
</svg>
