<?xml version="1.0" standalone="no"?>
<!DOCTYPE svg PUBLIC "-//W3C//DTD SVG 20010904//EN"
 "http://www.w3.org/TR/2001/REC-SVG-20010904/DTD/svg10.dtd">
<svg version="1.0" xmlns="http://www.w3.org/2000/svg"
 width="292.000000pt" height="300.000000pt" viewBox="0 0 292.000000 300.000000"
 preserveAspectRatio="xMidYMid meet">
<metadata>
Created by potrace 1.16, written by Peter Selinger 2001-2019
</metadata>
<g transform="translate(0.000000,300.000000) scale(0.100000,-0.100000)"
fill="#000000" stroke="none">
<path d="M2460 2971 c-572 -151 -1056 -285 -1063 -295 -4 -6 -43 -75 -88 -153
l-80 -143 -178 0 -179 0 -436 -432 c-240 -238 -436 -438 -436 -443 0 -6 197
-207 438 -448 l438 -438 176 3 175 3 89 -155 89 -155 325 -87 c633 -169 857
-228 867 -228 5 0 29 71 52 158 24 86 58 213 76 282 129 476 195 727 195 745
0 11 -34 79 -76 150 -42 72 -80 139 -86 150 -7 17 6 47 76 165 47 80 86 154
86 165 0 19 -33 147 -215 825 -103 387 -95 360 -119 359 -12 0 -68 -13 -126
-28z m-310 -436 c0 -2 -113 -200 -252 -440 l-251 -435 -510 0 -509 0 120 128
c66 70 211 217 321 327 l201 200 432 112 c456 118 448 116 448 108z m405 -612
l117 -421 -122 -439 c-67 -241 -124 -439 -125 -441 -3 -3 -501 857 -507 874
-2 5 112 208 252 451 199 345 256 437 261 420 3 -12 59 -212 124 -444z m-740
-870 c94 -162 209 -363 257 -445 55 -95 81 -147 70 -144 -9 3 -210 55 -445
115 -235 60 -434 115 -442 121 -8 7 -155 156 -326 331 l-311 319 513 0 514 -1
170 -296z"/>
</g>
</svg>
